# xmcd
#
# Track frame offsets: 
#        150
#        16906
#        28618
#        47600
#        68302
#        80075
#        98487
#        114878
#        135093
#        148300
#        151976
#        171993
#
# Disc length: 2602 seconds
#
# Revision: 0
# Processed by: cddbd v1.5.2PL0 Copyright (c) Steve Scherf et al.
# Submitted via: ExactAudioCopy v0.95b4
#
DISCID=8a0a280c
DTITLE=Johnny Nocturne Band with Miss Dee - Blues Volume
DYEAR=2002
DGENRE=Blues
TTITLE0=Hound Dog
TTITLE1=Young Woman's Blues
TTITLE2=29 Ways
TTITLE3=Person to Person
TTITLE4=Is There Something On Your Mind?
TTITLE5=Lee Allen
TTITLE6=Wild Wig
TTITLE7=It's My Own Fault
TTITLE8=Gee I Wish
TTITLE9=Sunshine Of Your Love
TTITLE10=Historie Un Amor
TTITLE11=Since I Fell For You
EXTD=
EXTT0=
EXTT1=
EXTT2=
EXTT3=
EXTT4=
EXTT5=
EXTT6=
EXTT7=
EXTT8=
EXTT9=
EXTT10=
EXTT11=
PLAYORDER=
